<svg width="512" height="512" viewBox="0 0 512 512" fill="none" xmlns="http://www.w3.org/2000/svg">
<path d="M375.465 141.133V380.065C375.465 389.118 371.869 397.8 365.467 404.201C359.066 410.602 350.384 414.198 341.332 414.198H34.1332C25.0805 414.198 16.3986 410.602 9.99737 404.201C3.59616 397.8 0 389.118 0 380.065V141.133C0 132.08 3.59616 123.399 9.99737 116.997C16.3986 110.596 25.0805 107 34.1332 107H341.332C350.384 107 359.066 110.596 365.467 116.997C371.869 123.399 375.465 132.08 375.465 141.133ZM499.198 141.666C496.79 141.077 494.285 141.005 491.847 141.453C489.409 141.902 487.094 142.861 485.054 144.269L413.395 192.034C412.226 192.814 411.268 193.871 410.606 195.11C409.943 196.349 409.597 197.733 409.598 199.138V322.06C409.597 323.465 409.943 324.849 410.606 326.088C411.268 327.328 412.226 328.384 413.395 329.164L485.459 377.207C488.156 379.006 491.31 380 494.552 380.071C497.794 380.143 500.989 379.29 503.763 377.612C506.33 375.98 508.435 373.717 509.877 371.039C511.318 368.361 512.049 365.357 511.998 362.316V158.2C511.999 154.415 510.743 150.736 508.426 147.743C506.109 144.75 502.862 142.613 499.198 141.666Z" fill="white"/>
<path d="M115.506 164.343L109.227 176.763L116.284 180.285L122.563 167.866L115.506 164.343ZM259.631 166.33L252.31 169.271L257.553 182.157L264.874 179.216L259.631 166.33ZM132.489 171.823L125.761 184.007L132.683 187.783L139.413 175.598L132.489 171.823ZM244.382 172.551L237.325 176.074L243.604 188.494L250.661 184.971L244.382 172.551ZM229.063 180.355L222.468 184.671L230.161 196.279L236.757 191.963L229.063 180.355ZM146.978 181.137L138.96 192.525L145.43 197.023L153.448 185.635L146.978 181.137ZM215.11 189.09L208.887 193.92L217.496 204.875L223.72 200.044L215.11 189.09ZM160.5 191.453L150.914 201.575L156.665 206.953L166.251 196.832L160.5 191.453ZM202.769 199.688L197.475 205.511L207.854 214.829L213.148 209.006L202.769 199.688ZM172.908 204.107L161.729 212.46L166.475 218.732L177.655 210.379L172.908 204.107ZM190.978 213.447L187.411 220.449L199.891 226.726L203.458 219.725L190.978 213.447ZM180.869 228.758C173.673 228.758 165.8 233.148 155.581 243.303C154.291 244.585 154.035 245.329 153.989 246.101C153.943 246.873 154.22 248.062 155.297 249.846C157.279 253.127 161.966 257.99 168.145 264.157V243.581H193.592V264.157C199.771 257.99 204.458 253.127 206.44 249.846C207.517 248.062 207.794 246.873 207.748 246.101C207.702 245.329 207.446 244.585 206.156 243.303C195.937 233.148 188.064 228.758 180.869 228.758ZM176.042 251.429V289.042C176.79 294.582 179.278 295.898 180.869 295.898C182.459 295.898 184.947 294.582 185.695 289.042V251.429H176.042ZM168.145 284.449L156.771 352.263C156.81 352.781 157.263 354.35 158.488 356.175C159.766 358.081 161.725 360.244 164.092 362.204C168.826 366.124 175.165 369.142 180.869 369.142C186.572 369.142 192.911 366.124 197.645 362.204C200.013 360.244 201.971 358.081 203.25 356.175C204.474 354.35 204.927 352.781 204.966 352.263L193.592 284.453C194.451 293.201 188.308 303.494 180.869 303.746C172.823 303.549 168.145 293.818 168.145 284.449ZM180.869 336.444C188.622 336.444 194.908 341.128 194.908 346.907C194.908 352.686 188.622 357.37 180.869 357.37C173.115 357.37 166.829 352.686 166.829 346.907C166.829 341.128 173.115 336.444 180.869 336.444Z" fill="black"/>
</svg>
