<svg width="600" height="687" viewBox="0 0 600 687" fill="none" xmlns="http://www.w3.org/2000/svg">
<path d="M568.408 288.011L96.967 8.81193C58.6623 -13.8621 0 8.14111 0 64.2224V622.485C0 672.798 54.5104 703.12 96.967 677.897L568.408 398.831C610.464 374.012 610.597 312.832 568.408 288.011Z" fill="#1A1A1A"/>
<path d="M515.421 296.312L114.695 58.9936C82.1364 39.7207 32.2734 58.4234 32.2734 106.092V580.616C32.2734 623.381 78.6072 649.155 114.695 627.716L515.421 390.51C551.168 369.413 551.281 317.41 515.421 296.312Z" fill="#484848"/>
<path d="M462.431 304.614L132.422 109.175C105.609 93.3029 64.5449 108.705 64.5449 147.962V538.746C64.5449 573.965 102.702 595.19 132.422 577.534L462.431 382.188C491.87 364.815 491.963 321.988 462.431 304.614Z" fill="#7C7C7C"/>
<path d="M409.442 312.915L150.149 159.356C129.082 146.885 96.8174 158.987 96.8174 189.832V496.876C96.8174 524.548 126.798 541.225 150.149 527.353L409.442 373.866C432.572 360.216 432.646 326.567 409.442 312.915Z" fill="#B4B4B4"/>
<path d="M356.454 321.217L167.878 209.537C152.556 200.468 129.091 209.269 129.091 231.702V455.007C129.091 475.132 150.895 487.261 167.878 477.172L356.454 365.545C373.276 355.617 373.33 331.145 356.454 321.217Z" fill="#F0F0F0"/>
</svg>
