<svg width="723" height="828" viewBox="0 0 723 828" fill="none" xmlns="http://www.w3.org/2000/svg">
<path d="M684.848 347.01L116.831 10.6171C70.6795 -16.7018 0 9.80884 0 77.3785V750.003C0 810.622 65.6769 847.156 116.831 816.766L684.848 480.533C735.519 450.629 735.68 376.916 684.848 347.01Z" fill="#101010"/>
<path d="M618.227 357.679L141.093 75.1088C102.325 52.161 42.9546 74.4299 42.9546 131.188V696.193C42.9546 747.113 98.1232 777.801 141.093 752.274L618.227 469.838C660.79 444.719 660.925 382.8 618.227 357.679Z" fill="#373737"/>
<path d="M551.608 368.349L165.356 139.601C133.973 121.025 85.9106 139.052 85.9106 184.999V642.384C85.9106 683.605 130.571 708.448 165.356 687.783L551.608 459.144C586.063 438.809 586.173 388.685 551.608 368.349Z" fill="#646464"/>
<path d="M484.986 379.018L189.617 204.093C165.619 189.887 128.865 203.673 128.865 238.809V588.574C128.865 620.096 163.017 639.093 189.617 623.291L484.986 448.449C511.335 432.899 511.419 394.569 484.986 379.018Z" fill="#959595"/>
<path d="M418.367 389.686L213.881 268.585C197.266 258.75 171.822 268.294 171.822 292.619V534.764C171.822 556.587 195.465 569.739 213.881 558.798L418.367 437.754C436.608 426.989 436.666 400.452 418.367 389.686Z" fill="#C9C9C9"/>
<path d="M351.744 400.355L238.141 333.077C228.91 327.613 214.774 332.915 214.774 346.429V480.954C214.774 493.078 227.91 500.384 238.141 494.306L351.744 427.06C361.878 421.079 361.91 406.336 351.744 400.355Z" fill="white"/>
</svg>
